<svg width="64" height="64" fill="none" xmlns="http://www.w3.org/2000/svg"><g clip-path="url(#clip0)" fill="#204479"><path d="M61.506.107l-.04.014-59.999 22.5c-1.428.535-1.651 2.468-.381 3.315l13.154 8.77c.046.193 4.794 20.037 4.825 20.154.37 1.385 2.111 1.866 3.136.841l9.413-9.413 14.47 9.648a1.876 1.876 0 002.844-1.045C49.05 54.46 63.92 2.422 63.944 2.325c.36-1.46-1.05-2.704-2.438-2.218zM6.21 24.847L48.361 9.04 15.894 31.301 6.21 24.846zm17.166 13.696c-.006.008-.01.017-.015.025a1.992 1.992 0 00-.268.665l-2.093 7.612-2.98-12.455 29.04-19.912c-24.968 25.314-23.529 23.828-23.68 24.06l-.005.005zm1.186 9.493l1.498-5.45 2.371 1.58-3.87 3.87zm21.465 3.354L27.864 39.281 58.305 8.418 46.028 51.39zM12.576 51.425a1.875 1.875 0 00-2.652 0L.549 60.799a1.875 1.875 0 102.652 2.652l9.375-9.375a1.875 1.875 0 000-2.651z"/><path d="M12.576 40.175a1.875 1.875 0 00-2.652 0L.549 49.549a1.875 1.875 0 002.652 2.652l9.375-9.375a1.875 1.875 0 000-2.651z"/></g><defs><clipPath id="clip0"><path fill="#fff" d="M0 0h64v64H0z"/></clipPath></defs></svg>