<svg width="32" height="32" fill="none" xmlns="http://www.w3.org/2000/svg"><path d="M5.988 22.435a2.84 2.84 0 002.187.718c.85-.086 1.7-.229 2.528-.425a23.039 23.039 0 0110.594 0c.828.196 1.678.339 2.528.424a2.842 2.842 0 002.187-.717 2.815 2.815 0 00.925-2.084v-3.577c0-.793-.337-1.553-.925-2.084a2.84 2.84 0 00-2.188-.717c-.848.085-1.699.228-2.527.424a23.041 23.041 0 01-10.594 0 19.415 19.415 0 00-2.528-.425 2.841 2.841 0 00-2.187.718 2.815 2.815 0 00-.926 2.084v3.577c0 .793.338 1.553.926 2.084zm.95-5.661a.947.947 0 011.05-.936c.766.077 1.534.207 2.282.384a24.846 24.846 0 0011.46 0 17.544 17.544 0 012.283-.384.951.951 0 01.741.242c.2.18.309.426.309.694v3.577a.95.95 0 01-1.05.936 17.543 17.543 0 01-2.283-.384 24.834 24.834 0 00-11.46 0c-.747.178-1.516.307-2.282.384a.95.95 0 01-1.05-.936v-3.577zM6.625 5.625a2.816 2.816 0 002.813-2.813A2.816 2.816 0 006.624 0a2.816 2.816 0 00-2.813 2.813 2.816 2.816 0 002.813 2.812zm0-3.75a.939.939 0 010 1.875.939.939 0 010-1.875zM16 6.875a2.816 2.816 0 002.813-2.813A2.816 2.816 0 0016 1.25a2.816 2.816 0 00-2.813 2.813A2.816 2.816 0 0016 6.874zm0-3.75A.939.939 0 0116 5a.939.939 0 010-1.875z" fill="#204479"/><path d="M31.938 8.563a4.041 4.041 0 00-2.5-3.744v-.006A3.441 3.441 0 0026 1.374a3.441 3.441 0 00-3.436 3.352 3.75 3.75 0 00-1.494.974 3.73 3.73 0 00-.792 3.8l-.13.03-.006.002c-2.71.643-5.574.643-8.285 0l-.005-.002a24.38 24.38 0 00-5.616-.656 6.18 6.18 0 00-6.173 6.173v10.779A6.18 6.18 0 006.236 32c1.89 0 3.78-.221 5.617-.657h.004a18.035 18.035 0 018.285 0h.005c1.838.436 3.728.657 5.617.657a6.18 6.18 0 006.174-6.173V15.048c0-1.324-.414-2.58-1.18-3.627a4.049 4.049 0 001.18-2.858zm-8.27-2.169a.937.937 0 00.832-1.178 1.551 1.551 0 01-.063-.404c0-.861.701-1.562 1.563-1.562s1.563.7 1.563 1.563c0 .12-.023.255-.07.422a.938.938 0 00.747 1.18 2.176 2.176 0 011.823 2.147 2.19 2.19 0 01-2.188 2.188c-.65 0-1.266-.299-1.689-.82a.936.936 0 00-1.279-.167 1.855 1.855 0 01-1.095.362 1.877 1.877 0 01-1.875-1.875c0-.965.76-1.78 1.73-1.856zm-21.73 8.654a4.303 4.303 0 014.298-4.298 22.5 22.5 0 015.188.607l.006.001c2.99.709 6.15.709 9.14 0h.006c.283-.068.58-.131.885-.19a3.731 3.731 0 003.838.52 4.015 4.015 0 003.86.728c.586.75.904 1.665.904 2.632v7.029a4.303 4.303 0 01-4.299 4.298 22.5 22.5 0 01-5.193-.608 19.916 19.916 0 00-9.142 0h-.005a22.502 22.502 0 01-5.188.608 4.303 4.303 0 01-4.298-4.298v-7.029zm23.826 15.077a22.5 22.5 0 01-5.193-.608 19.916 19.916 0 00-9.142 0h-.005a22.502 22.502 0 01-5.188.608 4.305 4.305 0 01-4.234-3.56 6.151 6.151 0 004.234 1.685c1.889 0 3.778-.22 5.616-.657h.005a18.036 18.036 0 018.285 0h.005c1.838.436 3.728.657 5.617.657 1.637 0 3.128-.64 4.234-1.685a4.305 4.305 0 01-4.234 3.56z" fill="#204479"/></svg>