<svg width="32" height="32" fill="none" xmlns="http://www.w3.org/2000/svg"><path d="M22.439 28.251a.937.937 0 00-.938.938v1.873a.937.937 0 101.875 0V29.19a.938.938 0 00-.938-.938zM5.874 28.251a.937.937 0 00-.937.938v1.873a.937.937 0 101.875 0V29.19a.937.937 0 00-.938-.938z" fill="#204479"/><path d="M30.125 16.349V2.689l1.457-.971a.937.937 0 10-1.04-1.56l-1.875 1.25a.937.937 0 00-.417.78v14.16A2.817 2.817 0 0026.375 19v4.862a7.783 7.783 0 00-.783-.768l-.02-.017v-.566a4.547 4.547 0 00-1.09-2.95 4.58 4.58 0 00-1.97-1.348 9.04 9.04 0 00.38-2.6v-3.035c0-4.902-3.904-8.89-8.702-8.89s-8.702 3.988-8.702 8.89v3.035c0 .897.131 1.763.374 2.58-1.823.61-3.122 2.348-3.122 4.318v.56A7.682 7.682 0 000 28.954v2.106a.937.937 0 101.875 0v-2.106c0-1.885.902-3.563 2.297-4.628a5.862 5.862 0 013.542-1.198h1.83a8.515 8.515 0 004.646 1.377 8.515 8.515 0 004.646-1.377h1.762c2.806 0 5.28 2.082 5.756 4.844.005.032.02 3.091.02 3.091 0 .518.42.938.938.938h3.75c.518 0 .938-.42.938-.938V19a2.817 2.817 0 00-1.875-2.651zm-6.508 5.522a7.696 7.696 0 00-2.71-.613c.329-.408.623-.846.878-1.31a2.72 2.72 0 011.832 1.923zM7.363 12.578v-.055h13.652l.001.055s-.008 3.43-.024 3.625h-3.95l-2.296-1.69a.938.938 0 00-1.112 0l-2.296 1.69h-3.95c-.016-.194-.025-3.625-.025-3.625zm6.827-7.015c3.113 0 5.746 2.152 6.563 5.085H7.626c.818-2.933 3.45-5.085 6.564-5.085zM6.586 19.93c.256.47.552.913.885 1.325a7.672 7.672 0 00-2.775.61 2.705 2.705 0 011.89-1.935zm1.213-1.853h3.847c.2 0 .395-.064.556-.182l1.988-1.465 1.987 1.465a.938.938 0 00.556.182h3.848c-.974 2.656-3.471 4.55-6.391 4.55s-5.418-1.894-6.391-4.55zm22.326 7.797H28.25V19a.938.938 0 011.875 0v6.875zm-1.875 4.25V27.75h1.875v2.375H28.25z" fill="#204479"/></svg>