<svg width="32" height="32" fill="none" xmlns="http://www.w3.org/2000/svg"><path d="M18.93 2.921L10.016.046a.938.938 0 00-1.178.6L7.093 5.958a.937.937 0 00.6 1.184c.491.16.76.69.6 1.182-.397 1.216-1.116 2.062-1.878 2.957-.817.96-1.66 1.954-2.176 3.43a.894.894 0 00-.02.06l-.035.096L.05 27.345a.938.938 0 00.605 1.189l10.757 3.422a.936.936 0 001.174-.598l1.165-3.5c.938-2.872.658-5.516.212-8.064l-.002-.014c-.076-.429-.155-.855-.235-1.28-.531-2.841-1.033-5.525-.085-8.43a.939.939 0 011.182-.6l.952.31a6.997 6.997 0 00.082 2.915c.562 2.317 2.047 3.452 2.2 3.644a.938.938 0 101.317-1.334c-.074-.118-2.393-1.87-1.732-5.007l3.54-.528a.938.938 0 00.753-.637l.581-1.782a.938.938 0 00-.232-.958c-3.22-3.179-3.062-3.077-3.354-3.172zM7.842 12.497c.678-.797 1.374-1.616 1.888-2.717l1.87.61c-.703 2.865-.267 5.51.21 8.073a13.224 13.224 0 01-2.09-1.633c-.206-.201-1.75-1.671-3.326-2.368.397-.728.912-1.335 1.448-1.965zM11.97 27.27l-.872 2.619-8.971-2.855L5.715 16.21c.928.432 2.07 1.355 2.7 1.965.228.222 2.074 1.98 3.803 2.552.348 2.168.487 4.291-.248 6.544zm.332-18.623l-2.089-.682a2.826 2.826 0 00-1.096-2.16l1.212-3.689 7.13 2.3-1.164 3.563-.89-.291a2.817 2.817 0 00-3.103.96zM20.33 7.7l-2.073.31.804-2.463 1.491 1.473-.222.68zM31.063 5.688h-5.388a.937.937 0 100 1.875h5.388a.937.937 0 000-1.875zM29.71 13.393l-4.687-3.75a.937.937 0 10-1.171 1.464l4.687 3.75a.937.937 0 101.172-1.464z" fill="#204479"/></svg>