<svg width="32" height="32" fill="none" xmlns="http://www.w3.org/2000/svg"><path d="M20.834 0c-1.384 0-2.74.27-4 .786a4.658 4.658 0 00-.251.089s-3.73 1.563-3.73 3.626c0 .313.448.496 1.032.499 1.161.005 2.948-.536 3.26-1.01.308-.466.64-.79.965-1.017a8.06 8.06 0 012.724-.473c4.672 0 8.063 3.128 8.063 7.438 0 3.612-1.772 6.385-5.264 8.24-2.36 1.252-5.567 2.057-8.78 2.226v-2.442c2.966-.18 5.68-1.002 7.746-2.359 2.582-1.697 4.005-4.13 4.005-6.853V7.5h-26v1.25c0 2.722 1.422 5.156 4.005 6.853 2.065 1.357 4.78 2.179 7.745 2.359v2.476h-1.665c-2.055 0-2.992 1.457-2.992 2.812 0 .78.303 1.89 1.747 2.758.73.439 1.685.778 2.91 1.036V29.5h-5V32h12.5v-2.5h-5v-2.084c1.407.14 3.041.209 4.937.209v-2.5c-2.819 0-4.998-.155-6.663-.475-2.024-.39-2.93-.984-2.93-1.4 0-.154 0-.313.491-.313h2.915c1.922 0 6.863-.248 11.2-2.552 4.313-2.29 6.593-5.902 6.593-10.448C31.396 4.272 26.855 0 20.834 0zM5.981 13.514c-1.066-.7-2.298-1.84-2.724-3.514H23.95c-.426 1.675-1.658 2.813-2.724 3.514-1.95 1.28-4.656 1.986-7.622 1.986s-5.673-.705-7.623-1.986z" fill="#204479"/></svg>