<svg width="32" height="32" fill="none" xmlns="http://www.w3.org/2000/svg"><path d="M25.375 22.563a.938.938 0 00-.938.937v1.487l-1.6 1.6a.937.937 0 001.326 1.326l1.875-1.875a.938.938 0 00.274-.663V23.5a.938.938 0 00-.937-.938zM23.5 11.313h-3.75a.937.937 0 00-.938.937V16c0 .518.42.938.938.938h3.75c.518 0 .938-.42.938-.938v-3.75a.938.938 0 00-.938-.938zm-.938 3.75h-1.875v-1.876h1.875v1.876zM16 18.813h-3.75a.937.937 0 00-.938.937v3.75c0 .518.42.938.938.938H16c.518 0 .938-.42.938-.938v-3.75a.938.938 0 00-.938-.938zm-.938 3.75h-1.874v-1.875h1.874v1.875z" fill="#204479"/><path d="M28.188 19.434V4.687a2.816 2.816 0 00-2.813-2.812h-1.099A2.817 2.817 0 0021.625 0a2.817 2.817 0 00-2.651 1.875H9.276A2.817 2.817 0 006.625 0c-.747 0-1.46.287-2.005.809-.32.306-.558.67-.704 1.066H2.814A2.816 2.816 0 000 4.688v20.687a2.816 2.816 0 002.813 2.813h16.621c1.05 2.25 3.318 3.812 5.941 3.812C28.997 32 32 29.01 32 25.375c0-2.623-1.562-4.891-3.813-5.94zm-7.5-16.622a.939.939 0 011.875 0v.938h-1.875v-.938zm-15.063 0c0-.499.467-.937 1-.937.517 0 .938.42.938.938v.937H5.625v-.938zm-3.75 1.876c0-.517.42-.938.938-.938h.937v.938c0 .517.42.937.938.937H8.5c.518 0 .938-.42.938-.938V3.75h9.374v.938c0 .517.42.937.938.937h3.75c.518 0 .938-.42.938-.938V3.75h.937c.517 0 .938.42.938.938v2.875H1.875V4.688zm17.003 21.625H2.813a.939.939 0 01-.937-.938V9.437h24.438v9.441a6.57 6.57 0 00-7.434 7.434zm6.497 3.812c-2.61 0-4.688-2.161-4.688-4.75a4.693 4.693 0 014.688-4.688c2.597 0 4.75 2.084 4.75 4.688 0 2.575-2.175 4.75-4.75 4.75z" fill="#204479"/><path d="M8.5 11.313H4.687a.937.937 0 00-.937.937V16c0 .518.42.938.938.938H8.5c.518 0 .938-.42.938-.938v-3.75a.937.937 0 00-.938-.938zm-.938 3.75H5.625v-1.876h1.938v1.876zM8.5 18.813H4.687a.937.937 0 00-.937.937v3.75c0 .518.42.938.938.938H8.5c.518 0 .938-.42.938-.938v-3.75a.937.937 0 00-.938-.938zm-.938 3.75H5.625v-1.875h1.938v1.875zM16 11.313h-3.75a.937.937 0 00-.938.937V16c0 .518.42.938.938.938H16c.518 0 .938-.42.938-.938v-3.75a.938.938 0 00-.938-.938zm-.938 3.75h-1.874v-1.876h1.874v1.876z" fill="#204479"/></svg>