<svg width="32" height="32" fill="none" xmlns="http://www.w3.org/2000/svg"><path d="M5.969 19.625a1.25 1.25 0 100-2.5 1.25 1.25 0 000 2.5z" fill="#204479"/><path d="M25.266 12.25H9.778l-2.56-4.812V5.063h2.5v-2.5h-2.5V0h-2.5v2.563h-2.5v2.5h2.5v2.375L.032 16.251V32H31.97V19.511l-6.703-7.261zM9.406 29.5H7.22v-5.063a1.25 1.25 0 10-2.5 0V29.5H2.53V16.874l3.438-6.462 3.437 6.462V29.5zm14.765-14.75l4.385 4.75h-16.65v-3.25l-.798-1.5h13.063zM29.47 29.5H11.906V22H29.47v7.5z" fill="#204479"/><path d="M26.906 25.063a1.25 1.25 0 10-2.5 0v2.562h2.5v-2.563zM21.906 25.063a1.25 1.25 0 10-2.5 0v2.562h2.5v-2.563zM16.906 25.063a1.25 1.25 0 10-2.5 0v2.562h2.5v-2.563z" fill="#204479"/></svg>