<svg width="32" height="32" fill="none" xmlns="http://www.w3.org/2000/svg"><path d="M31.728.273a.933.933 0 00-1.32 0L17.802 12.88l-2.116-2.116a1.854 1.854 0 00-1.32-.546c-.498 0-.967.194-1.32.546L10.57 13.24l-.005.005c-.568.464-4.546 3.607-9.908 5.277a.933.933 0 00-.656.864c-.008.297.054 3.046 4.81 7.803 4.613 4.612 7.337 4.81 7.77 4.81h.034a.933.933 0 00.864-.655c1.664-5.346 4.813-9.339 5.277-9.909l.005-.004 2.476-2.477c.353-.352.547-.821.547-1.32 0-.498-.194-.967-.546-1.32L19.122 14.2 31.728 1.593a.933.933 0 000-1.32zM11.957 29.996a6.99 6.99 0 01-1.006-.412 11.755 11.755 0 01-1.226-.71l1.21-1.21a.933.933 0 10-1.32-1.32l-1.41 1.41a25.8 25.8 0 01-1.404-1.235l3.254-3.254a.933.933 0 10-1.32-1.32L5.482 25.2c-.472-.5-.88-.97-1.235-1.405l1.41-1.41a.933.933 0 10-1.32-1.32l-1.21 1.21c-.314-.479-.543-.89-.71-1.226a6.988 6.988 0 01-.411-1.005c4.407-1.513 7.773-3.843 9.156-4.893l5.689 5.689c-1.05 1.383-3.38 4.748-4.894 9.156zM18.1 19.452L12.549 13.9l1.817-1.817 5.552 5.551-1.817 1.817zM4.994 8.7H6.22v1.227a.933.933 0 001.866 0V8.7h1.227a.933.933 0 000-1.867H8.087V5.606a.933.933 0 00-1.866 0v1.227H4.994a.933.933 0 000 1.867zM29.128 22.826H27.9V21.6a.933.933 0 10-1.867 0v1.227h-1.227a.933.933 0 100 1.867h1.227v1.227a.933.933 0 101.867 0v-1.227h1.227a.933.933 0 100-1.867zM27.715 11.907a.942.942 0 00.87.662.943.943 0 00.9-.619.942.942 0 00-.304-1.05.94.94 0 00-1.022-.082.941.941 0 00-.444 1.089zM15.64 5.976c.315.258.771.28 1.11.055a.94.94 0 00.403-.924.942.942 0 00-.795-.776.94.94 0 00-.974.536.942.942 0 00.257 1.11zM21.684 27.725a.94.94 0 00-.8-.743.94.94 0 00-.958.527.943.943 0 00.192 1.067.942.942 0 001.08.16.939.939 0 00.486-1.01z" fill="#204479"/></svg>