<svg width="32" height="32" fill="none" xmlns="http://www.w3.org/2000/svg"><g clip-path="url(#clip0)"><path d="M22.268 18.813l.48-2.5h-9.826l1.057-6.25h-2.304c.961-.813 1.837-2.274 2.012-4.9-1.327.412-2.294 1.015-2.997 1.68.564-1.7.855-3.948.425-6.843C9.07 1.926 8.133 4.284 7.73 6.348 7.326 4.284 6.39 1.926 4.345 0c-.797 5.36.88 8.501 2.183 10.063H4.146l1.057 6.25H0V32h2.5V18.812h19.768zm-14.53-2.5l-.634-3.75h3.917l-.635 3.75H7.74zm24.262 0V32h-2.5V18.812h-2.14l-1.203 6.25h-6.032V29.5h3.813V32H13.874v-2.5h3.75v-4.438H12v-2.5h12.093l2.93-15.236 2.454.473-1.637 8.513H32z" fill="#204479"/></g><defs><clipPath id="clip0"><path fill="#fff" d="M0 0h32v32H0z"/></clipPath></defs></svg>