<svg width="32" height="32" fill="none" xmlns="http://www.w3.org/2000/svg"><path d="M32 7.45l-2.888-2.888 1.841-1.842L29.186.954l-1.84 1.842L24.58.03l-3.373 3.373L18.085.281l-5.062 5.062 5.892 5.891-7.677 7.684-5.957-5.957-5.062 5.062 3.154 3.154L0 24.55l2.807 2.807-1.871 1.874 1.767 1.766 1.871-1.873 2.845 2.845 3.373-3.373 3.091 3.092 5.063-5.062-5.941-5.941 7.676-7.684 6.007 6.007 5.062-5.062-3.123-3.123L32 7.45zM7.419 28.435L3.533 24.55l1.607-1.606 3.885 3.885-1.606 1.606zm7.993-1.81l-1.528 1.53L3.752 18.022l1.529-1.53 10.131 10.132zm11.276-11.15L16.557 5.343l1.528-1.529 10.132 10.132-1.529 1.529zm.172-6.419l-3.885-3.885 1.606-1.607 3.886 3.886-1.607 1.606z" fill="#204479"/></svg>