<svg width="32" height="32" fill="none" xmlns="http://www.w3.org/2000/svg"><path d="M17.25 19.375h-2.5v2.5h2.5v-2.5zM12.25 14.375h-2.5v2.5h2.5v-2.5zM12.25 19.375h-2.5v2.5h2.5v-2.5zM19.75 6.875h-2.5v-2.5h-2.5v2.5h-2.5v2.5h2.5v2.5h2.5v-2.5h2.5v-2.5z" fill="#204479"/><path d="M28.25 6.875h-1V3.75A3.754 3.754 0 0023.5 0h-15a3.754 3.754 0 00-3.75 3.75v3.125h-1A3.754 3.754 0 000 10.625V32h13.5v-5.125h5V32H32V10.625a3.754 3.754 0 00-3.75-3.75zM4.75 29.5H2.5V10.625c0-.69.56-1.25 1.25-1.25h1V29.5zm20 0H21v-5.125H11V29.5H7.25V3.75c0-.69.56-1.25 1.25-1.25h15c.69 0 1.25.56 1.25 1.25V29.5zm4.75 0h-2.25V9.375h1c.69 0 1.25.56 1.25 1.25V29.5z" fill="#204479"/><path d="M22.25 14.375h-2.5v2.5h2.5v-2.5zM17.25 14.375h-2.5v2.5h2.5v-2.5zM22.25 19.375h-2.5v2.5h2.5v-2.5z" fill="#204479"/></svg>