<svg version="1.1" id="Слой_1" xmlns="http://www.w3.org/2000/svg" x="0" y="0" viewBox="0 0 1002 951" xml:space="preserve"><style>.st0{fill:#204479;stroke:#204479;stroke-width:22;stroke-miterlimit:10}</style><path class="st0" d="M1525 9170c-122-12-218-62-326-169-60-60-85-94-117-161-22-47-46-112-52-145-7-38-14-261-17-601l-6-541-206-6c-113-4-235-12-271-17-154-26-297-134-377-286l-43-81V-110h2647l6 527c4 289 7 796 7 1125v598h1320v-862c0-475 3-981 7-1125l6-263h5807v4006l-41 85c-107 221-211 331-409 433l-126 65-1074 2c-1279 3-1236 6-1408-95l-92-55-1 42c0 23-4 666-8 1428l-7 1385-39 65c-83 138-231 248-375 279-30 7-150 14-266 17l-211 6-7 120c-3 66-6 269-6 451s-5 398-10 481c-9 148-9 150-51 234-61 123-159 219-296 289l-101 52-1894-1c-1041-1-1924-5-1963-9zm1340-535c82-22 147-60 204-120 222-234 107-596-216-680-198-52-400 40-491 223-35 73-37 81-37 176 0 89 3 108 27 159 88 187 314 294 513 242zm-1175-145v-140h260v280h273l-8-392c-4-216-9-395-11-398-3-2-61-6-129-8l-125-4v292h-260v-292l-125 4c-68 2-127 6-130 10-3 3-9 182-12 397l-6 391h273v-140zm2290 35v-105h-237l-7-287c-3-158-9-289-11-292-6-6-244-15-247-10-1 2-4 131-7 286s-8 284-11 287-54 8-113 12l-107 7v207h740v-105zm770 1v-105l-200-3c-205-3-220-6-220-43 0-36 17-40 200-43l180-4v-188l-181-2c-161-3-183-5-193-20-8-13-8-23 0-35 10-16 33-18 213-21l201-2v-230h-680v800h680v-104zm370-181v-285h380v-230h-640v800h260v-285zm895-1115c317-9 361-16 383-62 7-14 17-59 23-100 21-152 28-1144 28-3960l1-2908H4400l-1 853c0 468-4 925-8 1014-7 148-10 165-34 205-33 57-97 115-155 140-59 27-296 37-862 37-602 1-687-11-786-108-57-55-70-89-84-214-6-46-10-490-10-1004V200H409l4 3332c4 3313 6 3493 37 3608 15 55 44 71 148 82 234 25 4640 32 5417 8zm3313-3085c142-80 224-169 248-272 26-109 34-566 34-2120V200H6750l1 1238c0 680 4 1496 8 1812 7 550 9 577 28 622 30 66 64 114 131 181 86 89 159 118 322 130 25 2 487 4 1026 5l982 2 80-45z" transform="matrix(.1 0 0 -.1 0 929)"/><path class="st0" d="M2703 8409c-75-22-133-119-118-198 18-97 78-151 167-151 63 0 108 25 145 79 55 81 8 229-84 267-37 16-64 16-110 3zM912 6487l-53-53 3-535c3-586 2-569 64-618 52-41 84-44 529-48 492-6 580-1 627 31 87 58 98 117 105 526 9 518-12 664-103 721l-39 24-540 3-540 3-53-54zM2827 6482l-57-58V5344l58-57 58-57h1090l57 58 57 58v1078l-57 58-57 58H2884l-57-58zM4736 6481l-57-58-2-484c-2-537 1-573 55-635 63-72 40-69 568-69 261 0 501 4 532 8 70 10 117 40 143 92 19 38 20 60 20 540 0 542-1 558-54 617-25 29-37 33-102 39-41 4-292 8-559 8l-486 1-58-59zM917 4492l-57-58V3353l57-63 57-63 521 5c496 4 522 6 566 25 52 23 85 64 106 131 20 64 29 595 14 831-9 147-14 181-34 225-33 71-65 85-220 97-67 4-309 9-537 9H974l-57-58zM2827 4492l-57-58V3354l63-62 63-62h1070l62 63 62 63v1070l-63 62-63 62H2884l-57-58zM4743 4491l-63-58v-544l1-544 67-59 67-59 510 6c303 4 524 10 545 16 20 6 50 25 67 43 57 61 58 67 58 603 0 668 14 633-267 646-95 4-342 8-548 8h-375l-62-58zM913 2498l-53-54V1344l53-52 53-52h494c272 0 522 4 554 10 107 17 154 86 167 245 11 137 11 577-1 758-13 197-33 244-120 278-27 10-152 14-565 17l-530 3-52-53zM4742 2492l-62-57V1352l65-56 65-57 527 3c579 3 563 2 612 64 44 56 46 83 46 594 0 525-2 544-54 602-25 28-35 31-112 39-46 4-295 8-554 8h-470l-63-57zM7017 3408c-48-63-51-78-55-369s7-469 33-519c27-52 60-61 269-72 105-6 275-8 378-5 325 8 322 3 316 566-3 310-5 338-22 368-35 58-34 58-483 61l-411 3-25-33zM8451 3399c-17-24-34-59-38-78-14-63-10-711 5-757 16-53 54-91 106-106 51-15 665-13 744 3 73 15 108 47 122 113 7 35 10 174 8 402-3 394-5 405-76 441-34 16-73 18-438 21l-402 3-31-42zM7091 1931c-33-6-53-18-82-48-34-37-38-46-44-117-11-114 1-663 15-709 6-21 23-52 38-68l27-31 160-10c194-12 618-5 658 11 16 6 44 23 63 38l35 26-3 396c-3 373-4 398-23 436-11 22-36 48-55 60-33 19-53 20-390 22-195 0-375-2-399-6zM8532 1931c-30-5-54-18-79-43-34-35-36-39-45-139-5-57-8-232-6-389 5-436-14-420 502-420 417 0 460 11 485 128 15 71 15 702 0 757-13 46-32 70-74 94-26 14-76 16-385 18-195 0-374-2-398-6zM3290 895V-110h280v2010h-280V895z" transform="matrix(.1 0 0 -.1 0 929)"/></svg>