<svg width="32" height="32" fill="none" xmlns="http://www.w3.org/2000/svg"><path d="M31.482 3.614a.956.956 0 00-.124-.052A4.64 4.64 0 0128.418.59a.937.937 0 00-1.761.055 4.641 4.641 0 01-2.948 2.927.937.937 0 00.028 1.77l.007.002a4.64 4.64 0 012.912 2.912l.002.007a.938.938 0 001.78 0 4.641 4.641 0 012.917-2.92.934.934 0 00.645-.89c0-.356-.2-.68-.518-.84zm-3.934 2.322a6.559 6.559 0 00-1.484-1.484 6.56 6.56 0 001.484-1.483c.411.57.913 1.072 1.483 1.483a6.557 6.557 0 00-1.483 1.484zM5.341 19.309l.002-.004a4.64 4.64 0 012.972-2.937.937.937 0 00-.052-1.76 4.64 4.64 0 01-2.921-2.92.938.938 0 00-1.78 0 4.64 4.64 0 01-2.972 2.94.938.938 0 00.056 1.761 4.641 4.641 0 012.916 2.916v.004a.938.938 0 001.78 0zM2.97 15.498a6.557 6.557 0 001.483-1.484c.411.57.913 1.073 1.484 1.484a6.56 6.56 0 00-1.484 1.483 6.56 6.56 0 00-1.483-1.483zM27.046 16.569h-.569V16a.937.937 0 10-1.875 0v.569h-.569a.938.938 0 000 1.875h.569v.569a.938.938 0 001.875 0v-.57h.569a.938.938 0 000-1.874zM4.954 3.381h.569v.569a.938.938 0 001.875 0v-.569h.569a.938.938 0 000-1.875h-.57V.937a.938.938 0 00-1.874 0v.57h-.569a.938.938 0 000 1.874z" fill="#204479"/><path d="M26.041 24.97a.937.937 0 100-1.874h-.066v-.067a.937.937 0 10-1.875 0v.067h-1.138v-.067a.937.937 0 10-1.875 0v.067H19.95v-.067a.937.937 0 10-1.875 0v.067h-1.138V19.95h1.071c.518 0 .938-.42.938-.938V.938A.937.937 0 0018.008 0h-4.017a.938.938 0 00-.937.938v18.075c0 .517.42.937.937.937h1.071v3.146h-1.137v-.067a.937.937 0 10-1.875 0v.067h-1.138v-.067a.937.937 0 10-1.875 0v.067H7.9v-.067a.937.937 0 10-1.875 0v.067h-.067a.938.938 0 000 1.875h.067v1.137h-.067a.938.938 0 000 1.875h.067v1.138h-.067a.938.938 0 000 1.875h.067v.067a.938.938 0 001.875 0v-.067h1.137v.067a.938.938 0 001.875 0v-.067h1.138v.067a.938.938 0 001.875 0v-.067h1.137v.067a.938.938 0 001.875 0v-.067h1.138v.067a.938.938 0 001.875 0v-.067h1.137v.067a.938.938 0 001.875 0v-.067H24.1v.067a.938.938 0 001.875 0v-.067h.066a.938.938 0 000-1.875h-.066v-1.138h.066a.938.938 0 000-1.875h-.066v-1.137h.066zM14.93 18.076v-16.2h2.141v16.2H14.93zm9.17 11.046H7.9v-4.15h7.163v1.573a.938.938 0 001.875 0V24.97H24.1v4.15z" fill="#204479"/></svg>