<svg width="32" height="30" fill="none" xmlns="http://www.w3.org/2000/svg"><path d="M28.77 22.45a2.687 2.687 0 00-1.415-1.416V7.922c0-4.045-3.291-7.335-7.336-7.335s-7.335 3.29-7.335 7.335v8.413c-2.463.077-5.367.75-7.848 1.829C.946 19.854.06 21.616.001 22.795L0 24.256c0 .914.118 2.233 1.136 3.146.734.658 1.804.982 3.366 1.018h6.09a4.086 4.086 0 002.672.994c1.03 0 1.97-.381 2.692-1.009 2.37-.166 3.824-1.708 3.824-4.108v-2.593c-.033-1.703-.685-3.097-1.887-4.033-.816-.635-1.862-1.046-3.122-1.23V7.921a5.254 5.254 0 015.248-5.248 5.254 5.254 0 015.249 5.248v13.112c-.635.27-1.145.78-1.416 1.416h-3.23v6.885H32V22.45h-3.23zM5.668 20.078a20.77 20.77 0 012.938-1.01c-.532 1.095-1.508 2.389-2.86 2.389H3.218c.626-.478 1.465-.95 2.45-1.379zm7.596 7.248a2.02 2.02 0 01-2.018-2.018 2.02 2.02 0 012.018-2.018 2.02 2.02 0 012.019 2.018 2.02 2.02 0 01-2.019 2.018zm3.347-8.009c.705.549 1.059 1.34 1.081 2.416v2.563c0 .588-.129 1.009-.334 1.308a4.11 4.11 0 00-4.093-4.402 4.11 4.11 0 00-3.976 5.13h-4.75c-1.002-.024-1.678-.188-2.01-.485-.19-.17-.442-.52-.442-1.592v-.711h3.66c1.56 0 3.02-.876 4.11-2.467.528-.771.953-1.707 1.16-2.501.707-.1 1.39-.157 2.025-.163h.103c1.508 0 2.707.313 3.466.904zm9.7 3.592a.585.585 0 11-.001 1.17.585.585 0 01.001-1.17zm3.602 4.339H22.71v-2.711h1.143a2.675 2.675 0 002.46 1.628 2.676 2.676 0 002.458-1.628h1.143v2.71z" fill="#204479"/></svg>