<svg width="26" height="32" fill="none" xmlns="http://www.w3.org/2000/svg"><path d="M20.531 3.883a.938.938 0 100-1.875.938.938 0 000 1.875zM24.548 5.892a.938.938 0 100-1.875.938.938 0 000 1.875zM24.548 1.875a.938.938 0 100-1.875.938.938 0 000 1.875zM16.515 0H8.48A6.957 6.957 0 001.52 6.962c0 .518.42.938.937.938h3.08v2.698a17.983 17.983 0 00-3.645 5.584A17.99 17.99 0 00.515 23.1v5.953c0 .787.306 1.527.862 2.083A2.925 2.925 0 003.461 32h10.041c.788 0 1.527-.307 2.083-.863a2.926 2.926 0 00.863-2.083v-5.487c0-2.54-.989-4.927-2.785-6.724l-.013-.013a7.584 7.584 0 01-2.223-5.384V7.217l4.425 4.425a.937.937 0 001.326-1.326l-4.425-4.424h3.762c.517 0 .937-.42.937-.938V.938A.937.937 0 0016.515 0zm-4.178 18.17l.014.012a7.584 7.584 0 012.222 5.385v5.487c0 .286-.111.555-.314.758-.202.202-.47.313-.757.313H3.461c-.287 0-.555-.111-.758-.314a1.063 1.063 0 01-.313-.757V23.1c0-2.138.415-4.225 1.233-6.2a16.119 16.119 0 013.245-4.983h2.696a9.44 9.44 0 002.773 6.252zm-4.926-8.128V7.9h2.141v2.142H7.411zm4.15-5.476L10.1 6.025H3.48c.612-3.307 3.631-4.15 5.001-4.15h3.08v2.69zm4.016-.55h-2.142V1.876h2.142v2.142z" fill="#204479"/><path d="M8.481 17.07a.937.937 0 00-.822.487 41.49 41.49 0 00-1.287 2.594c-.901 1.99-1.339 3.425-1.339 4.384a3.452 3.452 0 003.448 3.448 3.452 3.452 0 003.448-3.448c0-.96-.438-2.393-1.338-4.384a41.486 41.486 0 00-1.288-2.594.938.938 0 00-.822-.486zm0 9.038a1.575 1.575 0 01-1.573-1.573c0-.915.788-2.843 1.573-4.473.785 1.63 1.573 3.558 1.573 4.473 0 .868-.706 1.573-1.573 1.573z" fill="#204479"/></svg>