<svg width="32" height="32" fill="none" xmlns="http://www.w3.org/2000/svg"><path d="M5.695 0H0v5.695c0 5.165 4.202 9.367 9.368 9.367h5.694V9.368C15.062 4.202 10.86 0 5.695 0zM8.3 2.343v4.633l-5.1-5.101h2.494c.916 0 1.794.166 2.606.468zM1.875 5.695V3.2l5.1 5.1H2.344a7.456 7.456 0 01-.468-2.606zm1.492 4.481H8.85l3.01 3.011H9.369a7.486 7.486 0 01-6.001-3.01zm9.82 1.686l-3.01-3.011V3.367a7.486 7.486 0 013.01 6v2.495zM26.305 0c-5.165 0-9.367 4.202-9.367 9.368v5.694h5.694c5.166 0 9.368-4.202 9.368-9.367V0h-5.695zm3.352 8.301h-4.633l5.1-5.1v2.494c0 .916-.165 1.794-.467 2.606zm-.858-6.426l-5.1 5.1V2.344a7.456 7.456 0 012.606-.468H28.8zm-6.976 1.492V8.85l-3.01 3.01V9.369a7.486 7.486 0 013.01-6.001zm.81 9.82h-2.495l3.011-3.01h5.484a7.486 7.486 0 01-6 3.01zM22.632 16.938h-5.695v5.694c0 5.166 4.203 9.368 9.368 9.368H32v-5.695c0-5.165-4.202-9.367-9.368-9.367zm2.392 6.76h4.633c.302.813.468 1.691.468 2.607V28.8l-5.1-5.1zm3.61-1.874h-5.485l-3.01-3.011h2.493a7.486 7.486 0 016.001 3.01zm-9.822.808v-2.494l3.011 3.011v5.484a7.486 7.486 0 01-3.01-6zm4.886 7.025v-4.633l5.101 5.101h-2.494a7.454 7.454 0 01-2.607-.468zM0 26.305V32h5.695c5.165 0 9.367-4.202 9.367-9.368v-5.694H9.368C4.202 16.938 0 21.14 0 26.305zm9.368-7.492h2.494l-3.011 3.01H3.367a7.486 7.486 0 016-3.01zm-7.025 4.886h4.633l-5.101 5.1v-2.494c0-.916.166-1.794.468-2.606zm.858 6.426l5.1-5.1v4.632a7.456 7.456 0 01-2.606.468H3.2zm6.975-1.492V23.15l3.011-3.01v2.493a7.486 7.486 0 01-3.01 6.001z" fill="#204479"/></svg>