<svg width="32" height="32" fill="none" xmlns="http://www.w3.org/2000/svg"><path d="M18.722 5.991L17.03 4.148a1.698 1.698 0 00.105-2.395l1.844-1.69a4.203 4.203 0 01-.257 5.928zm9.123 4.863c-1.167.034-2.223.502-2.973 1.32l1.843 1.692c.371-.404.858-.501 1.202-.511.333-.01.808.053 1.193.406l1.691-1.844c-.783-.718-1.833-1.096-2.956-1.063zm-.248-2.377h.039c1.108 0 2.12.29 3.007.863L32 7.238c-1.295-.836-2.824-1.271-4.419-1.264a8.715 8.715 0 00-6.345 2.814l1.843 1.692a6.205 6.205 0 014.518-2.003zm-4.095-3.628a1.251 1.251 0 100-2.502 1.251 1.251 0 000 2.502zm4.63-1.314a1.251 1.251 0 100-2.502 1.251 1.251 0 000 2.502zm-7.104 8.142l8.546 8.546L2.011 31.977 0 29.967 11.823 2.47l9.19 9.19.01-.003.005.019zm-2.256 1.282l-6.04-6.04c1.138 2.206 3.52 7.708 3.39 14.904-.01.477-.03.959-.063 1.443l3.482-1.485c.055-.682.082-1.289.083-1.862.007-2.273-.28-4.612-.852-6.96zm-8.655 9.166a29.214 29.214 0 01-.297 3.802l3.627-1.547a27.93 27.93 0 00.172-2.603c.093-5.103-1.207-9.312-2.269-11.873l-2.065 4.802c.583 2.564.855 4.997.832 7.419zm-6.86 6.6l3.832-1.634c.333-1.73.51-3.405.525-4.99a27.58 27.58 0 00-.151-3.156l-4.206 9.78zm18.63-12.65c.162 1.295.243 2.582.24 3.852-.002.247-.006.499-.016.758l3.076-1.311-3.3-3.3z" fill="#204479"/></svg>