<svg width="32" height="32" fill="none" xmlns="http://www.w3.org/2000/svg"><path d="M32 29.452H0v2.5h32v-2.5zM15.967.048L0 9.878v2.2h2.25v15.374h.063v.063H29.75V12.077H32v-2.2L15.967.047zm.003 2.934l10.757 6.595H5.258L15.97 2.982zM7.25 25.015h-2.5V12.077h2.5v12.938zm10 0h-2.563v-6.657a1.283 1.283 0 012.563 0v6.657zm5.063 0H19.75v-6.657a3.786 3.786 0 00-3.781-3.78 3.786 3.786 0 00-3.781 3.78v6.657H9.75V12.077h12.563v12.938zm4.937 0h-2.438V12.077h2.438v12.938z" fill="#204479"/><path d="M16 8.015a1.25 1.25 0 100-2.5 1.25 1.25 0 000 2.5z" fill="#204479"/></svg>