<svg width="32" height="32" fill="none" xmlns="http://www.w3.org/2000/svg"><path d="M26.174 20.924a5.715 5.715 0 002.038-2.89L32 6.82H7.646l-.269-2.98a4.187 4.187 0 00-1.346-2.726A4.188 4.188 0 003.196.01H0V2.51h3.196A1.69 1.69 0 014.89 4.061L6.844 25.74l.001.012a4.181 4.181 0 003.464 3.72 3.69 3.69 0 003.494 2.518 3.691 3.691 0 003.466-2.436h2.935a3.691 3.691 0 003.467 2.436 3.69 3.69 0 003.685-3.685 3.69 3.69 0 00-3.685-3.685 3.691 3.691 0 00-3.467 2.436H17.27a3.691 3.691 0 00-3.466-2.436 3.69 3.69 0 00-3.412 2.295 1.693 1.693 0 01-1.06-1.405l-.31-3.45h13.776c1.221 0 2.39-.393 3.377-1.135zm-2.503 6.193a1.188 1.188 0 010 2.373 1.188 1.188 0 01-1.187-1.186c0-.654.533-1.187 1.187-1.187zm-9.868 0a1.188 1.188 0 010 2.373 1.188 1.188 0 01-1.187-1.186c0-.654.533-1.187 1.187-1.187zM8.795 19.56L7.871 9.317H28.52l-2.68 7.933-.01.033c-.412 1.34-1.66 2.277-3.032 2.277H8.795z" fill="#204479"/></svg>