<svg width="18" height="18" fill="none" xmlns="http://www.w3.org/2000/svg"><g clip-path="url(#clip0)" fill="#204479"><path d="M17.982 5.292c-.042-.956-.197-1.614-.418-2.184a4.393 4.393 0 00-1.041-1.596A4.43 4.43 0 0014.93.475c-.573-.222-1.227-.377-2.184-.419C11.783.011 11.476 0 9.033 0c-2.444 0-2.75.01-3.71.053C4.367.095 3.71.25 3.14.47a4.392 4.392 0 00-1.597 1.041c-.457.45-.812.995-1.037 1.593C.284 3.678.13 4.332.088 5.288.042 6.252.03 6.558.03 9.002s.01 2.75.053 3.71c.042.956.197 1.613.419 2.183a4.439 4.439 0 001.04 1.596c.45.458.995.813 1.593 1.038.573.221 1.227.376 2.184.418.96.043 1.266.053 3.71.053 2.443 0 2.75-.01 3.71-.053.956-.042 1.613-.197 2.183-.418a4.604 4.604 0 002.634-2.634c.221-.573.376-1.227.418-2.184.042-.96.053-1.265.053-3.71 0-2.443-.004-2.749-.046-3.709zm-1.62 7.35c-.04.878-.187 1.353-.31 1.67a2.986 2.986 0 01-1.71 1.708c-.316.123-.794.271-1.67.31-.949.042-1.234.052-3.635.052-2.402 0-2.69-.01-3.636-.052-.88-.039-1.354-.187-1.67-.31a2.77 2.77 0 01-1.034-.671 2.799 2.799 0 01-.672-1.034c-.123-.316-.27-.795-.31-1.67-.042-.95-.052-1.235-.052-3.636 0-2.402.01-2.69.053-3.636.038-.88.186-1.354.309-1.67.144-.39.373-.746.675-1.034a2.794 2.794 0 011.034-.672c.316-.123.795-.27 1.67-.31.95-.041 1.234-.052 3.636-.052 2.405 0 2.69.01 3.636.053.879.039 1.354.186 1.67.31.39.143.746.372 1.034.67.299.293.527.644.672 1.035.123.316.27.794.31 1.67.041.95.052 1.234.052 3.636 0 2.401-.01 2.683-.053 3.632z"/><path d="M9.033 4.378a4.625 4.625 0 000 9.248 4.625 4.625 0 000-9.248zm0 7.623a3 3 0 11.001-6 3 3 0 010 6zM14.92 4.195a1.08 1.08 0 11-2.16 0 1.08 1.08 0 012.16 0z"/></g><defs><clipPath id="clip0"><path fill="#fff" d="M0 0h18v18H0z"/></clipPath></defs></svg>