<svg width="16" height="16" fill="none" xmlns="http://www.w3.org/2000/svg"><path d="M.778 2.089L2.874 0l4.353 4.346L5.54 6.089c.283.502.896 1.463 1.942 2.51 1.046 1.045 2.015 1.666 2.521 1.953l1.709-1.687 4.285 4.26-2.085 2.098a2.64 2.64 0 01-3.017.514c-1.537-.747-3.858-2.125-6.182-4.449C2.389 8.965 1.011 6.644.264 5.106a2.615 2.615 0 01-.263-1.144c0-.686.268-1.364.777-1.873zm.61 2.471c.705 1.452 2.007 3.644 4.208 5.845 2.201 2.201 4.394 3.504 5.845 4.209a1.39 1.39 0 001.587-.273l1.203-1.21-2.522-2.508-1.456 1.437-.39-.173c-.062-.028-1.569-.71-3.264-2.406-1.697-1.697-2.365-3.19-2.392-3.253l-.17-.384 1.437-1.483-2.6-2.597L1.66 2.972a1.39 1.39 0 00-.273 1.588z" fill="#204479"/></svg>