<svg width="18" height="18" fill="none" xmlns="http://www.w3.org/2000/svg"><path d="M4.322 9.781c.023-.056.248-.922.264-.98-.352-.53-.743-2.264-.443-3.67.324-2.066 2.512-3.08 4.577-3.08v-.005c2.587.002 4.523 1.441 4.525 3.92.002 1.94-1.167 4.504-3.162 4.504h-.002c-.712 0-1.614-.323-1.85-.64-.273-.366-.34-.817-.196-1.3.353-1.127.804-2.478.856-3.38.05-.85-.554-1.402-1.336-1.402-.59 0-1.354.342-1.735 1.302-.315.799-.308 1.634.02 2.555.129.36-.567 2.707-.79 3.47-.554 1.899-1.313 4.3-1.15 5.638L4.055 18l.786-1.03c1.088-1.425 2.213-5.11 2.513-6.006.886 1.147 2.732 1.18 2.947 1.18 2.643 0 5.64-2.624 5.556-6.277C15.783 2.663 13.438 0 9.226 0v.004C5.22.004 2.88 2.143 2.308 4.845c-.524 2.506.642 4.413 2.014 4.936z" fill="#204479"/></svg>