<svg version="1.2" baseProfile="tiny" xmlns="http://www.w3.org/2000/svg" viewBox="0 0 361.5 159.2" overflow="visible"><g fill="#FFF"><path d="M1085.9 306.1l-30.7-32.4-25.3-27c-4.2-4.5-10.1-7.1-16.2-7.1h-59.4c-9.9 0-16.4 2.6-19.1 7.8-3.7 7 1.4 15 2 15.9l.2.4 36.5 36.5c1.3 1.3 1.5 2.2 1.4 2.5-.1.3-1.2 1.1-3.6 1.1h-62c-3.6 0-8.9-3-14.3-8L879.6 281h21.2c1 0 9.4-.1 15.3-5.8 3.8-3.7 5.7-8.7 5.7-14.9 0-15.9-13.4-20.5-20.5-20.7h-51.8c-4.6 0-8.9 1.8-12.1 5-3.2 3.2-5 7.6-5 12.1l.2 40.2c0 4.2-3.5 7.7-7.7 7.7H802c-8.8 0-17.2-3.7-23.1-10.2-.4-.4-.7-.8-1.1-1.2-3.8-4.2-5.9-9.6-5.9-15.2v-32.4c0-2.4-2-4.4-4.4-4.4-2.4 0-4.4 2-4.4 4.4V278c0 7.8 2.9 15.3 8.1 21.1.4.4.8.8 1.1 1.3 7.6 8.3 18.4 13 29.6 13h22.9c9.1 0 16.6-7.4 16.6-16.6l-.2-40.3c0-2.2.8-4.3 2.4-5.9s3.6-2.4 5.8-2.4H901c.4 0 3.5.3 6.4 1.8 3.7 2 5.5 5.3 5.5 10 0 3.8-1 6.5-3 8.5-3.4 3.4-9 3.4-9 3.4h-43.8l32.3 30.1c5.1 4.7 12.7 10.4 20.3 10.4h62c5.7 0 10.1-2.4 11.8-6.5 1.6-3.9.4-8.4-3.3-12.1L944.3 258c-.8-1.4-2.3-4.7-1.3-6.5.4-.7 2.3-3.1 11.3-3.1h59.4c3.7 0 7.2 1.6 9.7 4.3l18.4 19.6h-18.9-.8c-.1 0-.2 0-.2.1h-.2c-.1 0-.2.1-.2.1-.1 0-.1 0-.2.1-.1 0-.1.1-.2.1s-.1.1-.2.1-.1.1-.2.1-.1.1-.2.1-.1.1-.2.1-.1.1-.2.1l-.1.1-.2.2-.1.1-.2.2c0 .1-.1.1-.1.2s-.1.1-.1.2c-.1.1-.1.2-.2.3 0 0 0 .1-.1.1l-18 32c-1.2 2.1-.4 4.8 1.7 6 .7.4 1.4.6 2.2.6 1.5 0 3.1-.8 3.9-2.3l16.8-29.8h24.7l29.4 31c.9.9 2 1.4 3.2 1.4 1.1 0 2.2-.4 3-1.2 1.6-1.6 1.7-4.4 0-6.2zM912.6 340.8c0 4.8-3.4 8.7-8.2 8.7h-6.6V332h6.6c4.8 0 8.2 3.9 8.2 8.8zm-1.3 0c0-4.1-2.8-7.5-6.9-7.5h-5.2v15h5.2c4.1 0 6.9-3.4 6.9-7.5zM934.8 332v17.5h-1.3V332h1.3zM973.2 342c0 4.2-3.2 7.7-8.4 7.7-5.4 0-9.2-4-9.2-9s3.8-9 9.1-9c3.2 0 6.1 1.7 7.5 4.2l-1.2.7c-1.1-2.2-3.6-3.6-6.3-3.6-4.6 0-7.8 3.4-7.8 7.7 0 4.3 3.2 7.7 7.9 7.7 4.2 0 6.8-2.6 7.1-5.9h-7.4v-1.2h8.8v.7zM995.3 332v17.5H994V332h1.3zM1027.5 333.3h-5.5v16.2h-1.3v-16.2h-5.5V332h12.3v1.3zM1055.7 345.1h-8.8l-1.7 4.4h-1.4l6.8-17.5h1.4l6.8 17.5h-1.4l-1.7-4.4zm-.5-1.3l-3.9-10.2-3.9 10.2h7.8zM1087.2 348.3v1.2h-9.6V332h1.3v16.2h8.3z"/></g><path d="M1082 95.6l-30.7-32.4-25.3-27c-4.2-4.5-10.1-7.1-16.2-7.1h-59.4c-9.9 0-16.4 2.6-19.1 7.8-3.7 7 1.4 15 2 15.9l.2.4L970 89.7c1.3 1.3 1.5 2.2 1.4 2.5-.1.3-1.2 1.1-3.6 1.1h-62c-3.6 0-8.9-3-14.3-8l-15.8-14.7h21.2c1 0 9.4-.1 15.3-5.8 3.8-3.7 5.7-8.7 5.7-14.9 0-15.9-13.4-20.5-20.5-20.7h-51.8c-4.6 0-8.9 1.8-12.1 5-3.2 3.2-5 7.6-5 12.1l.2 40.2c0 4.2-3.5 7.7-7.7 7.7h-22.9c-8.8 0-17.2-3.7-23.1-10.2-.4-.4-.7-.8-1.1-1.2-3.8-4.2-5.9-9.6-5.9-15.2V35.2c0-2.4-2-4.4-4.4-4.4-2.4 0-4.4 2-4.4 4.4v32.4c0 7.8 2.9 15.3 8.1 21.1.4.4.8.8 1.1 1.3 7.6 8.3 18.4 13 29.6 13h23c9.1 0 16.6-7.4 16.6-16.6l-.2-40.3c0-2.2.8-4.3 2.4-5.9 1.6-1.6 3.6-2.4 5.8-2.4h51.6c.4 0 3.5.3 6.4 1.8 3.7 2 5.5 5.3 5.5 10 0 3.8-1 6.5-3 8.5-3.4 3.4-9 3.4-9 3.4h-43.8l32.3 30.1c5.1 4.7 12.7 10.4 20.3 10.4h62c5.7 0 10.1-2.4 11.8-6.5 1.6-3.9.4-8.4-3.3-12.1l-35.9-35.9c-.8-1.4-2.3-4.7-1.3-6.5.4-.7 2.3-3.1 11.3-3.1h59.4c3.7 0 7.2 1.5 9.7 4.3l18.4 19.6h-19-.8c-.1 0-.2 0-.2.1h-.2c-.1 0-.2.1-.2.1-.1 0-.1 0-.2.1-.1 0-.1.1-.2.1s-.1.1-.2.1-.1.1-.2.1-.1.1-.2.1-.1.1-.2.1-.1.1-.2.1l-.1.1-.2.2-.1.1-.2.2c0 .1-.1.1-.1.2s-.1.1-.1.2c-.1.1-.1.2-.2.3 0 0 0 .1-.1.1l-18 32c-1.2 2.1-.4 4.8 1.7 6 .7.4 1.4.6 2.2.6 1.5 0 3.1-.8 3.9-2.3l16.8-29.8h24.7l29.4 31c.9.9 2 1.4 3.2 1.4 1.1 0 2.2-.4 3-1.2 1.6-1.7 1.7-4.5 0-6.2zM908.7 130.2c0 4.8-3.4 8.7-8.2 8.7h-6.6v-17.5h6.6c4.8.1 8.2 4 8.2 8.8zm-1.3 0c0-4.1-2.8-7.5-6.9-7.5h-5.2v15h5.2c4.1 0 6.9-3.3 6.9-7.5zM930.9 121.5V139h-1.3v-17.5h1.3zM969.4 131.5c0 4.2-3.2 7.7-8.4 7.7-5.4 0-9.2-4-9.2-9s3.8-9 9.1-9c3.2 0 6.1 1.7 7.5 4.2l-1.2.7c-1.1-2.2-3.6-3.6-6.3-3.6-4.6 0-7.8 3.4-7.8 7.7 0 4.3 3.2 7.7 7.9 7.7 4.2 0 6.8-2.6 7.1-5.9h-7.4v-1.2h8.8v.7zM991.4 121.5V139h-1.3v-17.5h1.3zM1023.7 122.7h-5.5V139h-1.3v-16.2h-5.5v-1.2h12.3v1.1zM1051.8 134.5h-8.8l-1.7 4.4h-1.4l6.8-17.5h1.4l6.8 17.5h-1.4l-1.7-4.4zm-.5-1.2l-3.9-10.2-3.9 10.2h7.8zM1083.4 137.7v1.2h-9.6v-17.5h1.3v16.2h8.3z"/><path fill="#FFF" d="M342.4 293.8l-30.7-32.4-25.3-27c-4.2-4.5-10.1-7.1-16.2-7.1h-59.4c-9.9 0-16.4 2.6-19.1 7.8-3.7 7 1.4 15 2 15.9l.2.4 36.5 36.5c1.3 1.3 1.5 2.2 1.4 2.5-.1.3-1.2 1.1-3.6 1.1h-62c-3.6 0-8.9-3-14.3-8l-15.8-14.7h21.2c1 0 9.4-.1 15.3-5.8 3.8-3.7 5.7-8.7 5.7-14.9 0-15.9-13.4-20.5-20.5-20.7H106c-4.6 0-8.9 1.8-12.1 5-3.2 3.2-5 7.6-5 12.1l.2 40.2c0 4.2-3.5 7.7-7.7 7.7H58.5c-8.8 0-17.2-3.7-23.1-10.2-.4-.4-.7-.8-1.1-1.2-3.8-4.2-5.9-9.6-5.9-15.2v-32.4c0-2.4-2-4.4-4.4-4.4-2.4 0-4.4 2-4.4 4.4v32.4c0 7.8 2.9 15.3 8.1 21.1.4.4.8.8 1.1 1.3 7.6 8.3 18.4 13 29.6 13h22.9c9.1 0 16.6-7.4 16.6-16.6l-.2-40.3c0-2.2.8-4.3 2.4-5.9 1.6-1.6 3.6-2.4 5.8-2.4h51.6c.4 0 3.5.3 6.4 1.8 3.7 2 5.5 5.3 5.5 10 0 3.8-1 6.5-3 8.5-3.4 3.4-9 3.4-9 3.4h-43.8l32.3 30.1c5.1 4.7 12.7 10.4 20.3 10.4h62c5.7 0 10.1-2.4 11.8-6.5 1.6-3.9.4-8.4-3.3-12.1l-35.9-35.9c-.8-1.4-2.3-4.7-1.3-6.5.4-.7 2.3-3.1 11.3-3.1h59.4c3.7 0 7.2 1.6 9.7 4.3l18.4 19.6h-18.9-.8c-.1 0-.2 0-.2.1h-.2c-.1 0-.2.1-.2.1-.1 0-.1 0-.2.1-.1 0-.1.1-.2.1s-.1.1-.2.1-.1.1-.2.1-.1.1-.2.1-.1.1-.2.1-.1.1-.2.1l-.1.1-.2.2-.1.1-.2.2c0 .1-.1.1-.1.2s-.1.1-.1.2c-.1.1-.1.2-.2.3 0 0 0 .1-.1.1l-18 32c-1.2 2.1-.4 4.8 1.7 6 .7.4 1.4.6 2.2.6 1.5 0 3.1-.8 3.9-2.3l16.8-29.8h24.7l29.4 31c.9.9 2 1.4 3.2 1.4 1.1 0 2.2-.4 3-1.2 1.6-1.6 1.7-4.4 0-6.2z"/><g fill="#FFF"><path d="M34.8 329c0 4.8-3.4 8.7-8.2 8.7H20v-17.5h6.6c4.8.1 8.2 4 8.2 8.8zm-1.3 0c0-4.1-2.8-7.5-6.9-7.5h-5.2v15h5.2c4.1 0 6.9-3.3 6.9-7.5zM79.3 320.3v17.5H78v-17.5h1.3zM140.1 330.3c0 4.2-3.2 7.7-8.4 7.7-5.4 0-9.2-4-9.2-9s3.8-9 9.1-9c3.2 0 6.1 1.7 7.5 4.2l-1.2.7c-1.1-2.2-3.6-3.6-6.3-3.6-4.6 0-7.8 3.4-7.8 7.7 0 4.3 3.2 7.7 7.9 7.7 4.2 0 6.8-2.6 7.1-5.9h-7.4v-1.2h8.8v.7zM184.5 320.3v17.5h-1.3v-17.5h1.3zM239.1 321.5h-5.5v16.2h-1.3v-16.2h-5.5v-1.2h12.3v1.2zM289.6 333.3h-8.8l-1.7 4.4h-1.4l6.8-17.5h1.4l6.8 17.5h-1.4l-1.7-4.4zm-.5-1.2l-3.9-10.2-3.9 10.2h7.8zM343.5 336.5v1.2h-9.6v-17.5h1.3v16.2h8.3z"/></g><path fill="#FFF" d="M19.9 310.4h323.7v1.4H19.9zM19.9 346.5h323.7v1.4H19.9z"/><path d="M341.4 92l-30.7-32.4-25.3-27c-4.2-4.5-10.1-7.1-16.2-7.1h-59.4c-9.9 0-16.4 2.6-19.1 7.8-3.7 7 1.4 15 2 15.9l.2.4 36.5 36.5c1.3 1.3 1.5 2.2 1.4 2.5-.1.3-1.2 1.1-3.6 1.1h-62c-3.6 0-8.9-3-14.3-8L135.1 67h21.2c1 0 9.4-.1 15.3-5.8 3.8-3.7 5.7-8.7 5.7-14.9 0-15.9-13.4-20.5-20.5-20.7H105c-4.6 0-8.9 1.8-12.1 5-3.2 3.2-5 7.6-5 12.1l.2 40.2c0 4.2-3.5 7.7-7.7 7.7H57.5c-8.8 0-17.2-3.7-23.1-10.2-.4-.4-.7-.8-1.1-1.2-3.8-4.2-5.9-9.6-5.9-15.2V31.6c0-2.4-2-4.4-4.4-4.4-2.4 0-4.4 2-4.4 4.4V64c0 7.8 2.9 15.3 8.1 21.1.4.4.8.8 1.1 1.3 7.6 8.3 18.4 13 29.6 13h22.9c9.1 0 16.6-7.4 16.6-16.6l-.2-40.3c0-2.2.8-4.3 2.4-5.9 1.6-1.6 3.6-2.4 5.8-2.4h51.6c.4 0 3.5.3 6.4 1.8 3.7 2 5.5 5.3 5.5 10 0 3.8-1 6.5-3 8.5-3.4 3.4-9 3.4-9 3.4h-43.8L144.9 88c5.1 4.7 12.7 10.4 20.3 10.4h62c5.7 0 10.1-2.4 11.8-6.5 1.6-3.9.4-8.4-3.3-12.1l-35.9-35.9c-.8-1.4-2.3-4.7-1.3-6.5.4-.7 2.3-3.1 11.3-3.1h59.4c3.7 0 7.2 1.5 9.7 4.3l18.4 19.6h-18.9-.8c-.1 0-.2 0-.2.1h-.2c-.1 0-.2.1-.2.1-.1 0-.1 0-.2.1-.1 0-.1.1-.2.1s-.1.1-.2.1-.1.1-.2.1-.1.1-.2.1-.1.1-.2.1-.1.1-.2.1l-.1.1-.2.2-.1.1-.2.2c0 .1-.1.1-.1.2s-.1.1-.1.2c-.1.1-.1.2-.2.3 0 0 0 .1-.1.1l-18 32c-1.2 2.1-.4 4.8 1.7 6 .7.4 1.4.6 2.2.6 1.5 0 3.1-.8 3.9-2.3L280.9 67h24.7L335 98c.9.9 2 1.4 3.2 1.4 1.1 0 2.2-.4 3-1.2 1.8-1.6 1.9-4.4.2-6.2z"/><g><path d="M33.8 127.2c0 4.8-3.4 8.7-8.2 8.7H19v-17.5h6.6c4.8.1 8.2 4 8.2 8.8zm-1.3 0c0-4.1-2.8-7.5-6.9-7.5h-5.2v15h5.2c4.1 0 6.9-3.3 6.9-7.5zM78.4 118.5V136H77v-17.5h1.4zM139.1 128.5c0 4.2-3.2 7.7-8.4 7.7-5.4 0-9.2-4-9.2-9s3.8-9 9.1-9c3.2 0 6.1 1.7 7.5 4.2l-1.2.7c-1.1-2.2-3.6-3.6-6.3-3.6-4.6 0-7.8 3.4-7.8 7.7 0 4.3 3.2 7.7 7.9 7.7 4.2 0 6.8-2.6 7.1-5.9h-7.4v-1.2h8.8v.7zM183.5 118.5V136h-1.3v-17.5h1.3zM238.1 119.7h-5.5V136h-1.3v-16.2h-5.5v-1.2h12.3v1.1zM288.6 131.5h-8.8l-1.7 4.4h-1.4l6.8-17.5h1.4l6.8 17.5h-1.4l-1.7-4.4zm-.4-1.2l-3.9-10.2-3.9 10.2h7.8zM342.5 134.7v1.2H333v-17.5h1.3v16.2h8.2z"/></g><path d="M19 108.6h323.7v1.4H19zM19 144.7h323.7v1.4H19z"/></svg>