<svg version="1.2" baseProfile="tiny" xmlns="http://www.w3.org/2000/svg" viewBox="0 0 121.2 125.6" overflow="visible"><path fill="#4FE5E2" d="M96.5 120.1c-5.8-3-12.3-4.4-18.9-4.1-.7.1-1.5.1-2.2.1-7 .5-14 2.5-21.3 4.4l-1.4.4c-8.4 2.3-17 4.5-26 4.5-2.7 0-5.4-.2-8-.7-9.6-1.6-16.1-7.1-18.1-15.4-3.9-16 8.9-37.1 23-47.5 7.2-5.4 15.3-9.3 24-11.4l.3-.1C68 46 78.7 54.2 79.7 55.1l.1.1c.4.3.7.7 1 1l.1.1c5.4 5.8-3.4 9.7-3.4 9.7S69.2 53.7 57 59.6c-.2.1-.3.1-.4.2-.3.1-.5.3-.7.4l-.3.2c-.8.5-1.6 1.1-2.2 1.8-5.1 4.8-8.8 14.5-5.4 25.3 3.8 12.4 17.7 19.3 26.9 19.4 4.1-.4 8.3-.2 12.4.5.3 0 .6.1.8.2.3 0 .6.1.8.2 8.8 2 8.6 10.2 7.6 12.3zM120.5 8.7L91.2 43.1c.7 1.6.4 3.4-.7 4.8l-1.6 2c-.3.4-.9.5-1.3.2l-10.1-7.9c-.4-.3-.5-.9-.2-1.3l1.6-2c1.2-1.5 3.1-2.2 5-1.7l27.3-35.9c1.1-1.4 3.1-1.7 4.5-.6 0 0 .1 0 .1.1l4.2 3.4c1.4 1 1.6 3 .5 4.5 0-.1 0 0 0 0z"/><path fill="#161F32" d="M120.5 8.7L91.2 43.1c.7 1.6.4 3.4-.7 4.8l-1.6 2c-.3.4-.9.5-1.3.2l-10.1-7.9c-.4-.3-.5-.9-.2-1.3l1.6-2c1.2-1.5 3.1-2.2 5-1.7l27.3-35.9c1.1-1.4 3.1-1.7 4.5-.6 0 0 .1 0 .1.1l4.2 3.4c1.4 1 1.6 3 .5 4.5 0-.1 0 0 0 0zM88.9 107.7c-.3 0-.5-.1-.8-.2s-.6-.1-.8-.2c-4.1-.7-8.3-.9-12.4-.5-9.2-.1-23.1-7-26.9-19.4-3.3-10.8.3-20.5 5.5-25.3.7-.7 1.4-1.2 2.2-1.8.1-.1.2-.1.3-.2.2-.2.5-.3.7-.4.1-.1.3-.2.4-.2C69.2 53.7 77.7 66 77.7 66s8.8-3.9 3.4-9.7l-.1-.1-1-1-.1-.1c-1-.8-11.7-9-31.8-4.8l-.3.1c-8.7 2.2-16.8 6-24 11.4C9.6 72.3-3.2 93.5.7 109.5c2 8.4 8.5 13.9 18.1 15.4 2.6.4 5.3.7 8 .7 8.9 0 17.6-2.2 26-4.5l1.4-.4c7.2-2 14.3-3.9 21.3-4.4.7 0 1.5-.1 2.2-.1 6.5-.3 13.1 1.1 18.9 4.1.9-2.3 1.1-10.5-7.7-12.6zm-68.6 8.1c-6-1-9.5-3.8-10.6-8.5-1.4-5.8.7-13.9 5.1-21.6-.3 5.9.7 11.8 3 17.3 2.2 5.4 6.9 9.9 12.4 13.2-3.3.3-6.6.1-9.9-.4zm31.4-4.1c-.4.1-.8.2-1.3.3-6.1 1.6-20.7-4.1-24.1-12.5-3.2-8-6.1-23.2 11.6-35.6 1.3-.7 2.6-1.3 3.9-1.8-4.7 8.6-5.7 18.8-2.7 28.1 2.8 9.1 9.5 16 17 20.3-1.5.4-2.9.8-4.4 1.2z"/></svg>